<?xml version="1.0" encoding="utf-8"?>
<!-- Generator: Adobe Illustrator 27.7.0, SVG Export Plug-In . SVG Version: 6.00 Build 0)  -->
<svg version="1.1" id="Lager_1" xmlns="http://www.w3.org/2000/svg" xmlns:xlink="http://www.w3.org/1999/xlink" x="0px" y="0px"
	 viewBox="0 0 500 500" style="enable-background:new 0 0 500 500;" xml:space="preserve">
<style type="text/css">
	.st0{fill:#006335;}
</style>
<g>
	<g>
		<path class="st0" d="M444.1,249.9c-124.6-65.4-188-147.8-190.3-247.1c114.8,34.3,231.3,119.5,246.2,234V263
			c-14.9,114.5-131.4,199.7-246.2,234C256.1,397.7,319.5,315.3,444.1,249.9L444.1,249.9z M129.1,346.3c12.1-13.6,26.3-25,42.9-33.5
			c-24.1-14.4-43.9-32.5-53.5-54.8l-3.5-8.2l3.5-8.2c9.6-22.3,29.5-40.4,53.5-54.8c-16.6-8.5-30.8-19.9-42.9-33.5
			C75.3,173.4,21.7,205.6,5,249.9C21.7,294.2,75.3,326.4,129.1,346.3L129.1,346.3z M195.1,174.7c29.1-13.7,61.1-23,87.5-28.6
			c-17.4-23.7-31-49.9-39.5-78.8c-46.6-14.8-87.9-5.6-123.7,34.6C137,137.5,162,162.6,195.1,174.7L195.1,174.7z M195.1,325.1
			c-33.1,12.1-58.2,37.1-75.7,72.8c35.8,40.2,77.1,49.4,123.7,34.6c8.5-28.9,22.1-55.1,39.5-78.8
			C256.2,348.1,224.2,338.8,195.1,325.1L195.1,325.1z M297,335.7c28.9-33.7,65.5-62,105.1-85.8c-39.6-23.8-76.2-52.1-105.1-85.8
			c-57.9,10.9-139.7,39.5-159.7,85.8C157.3,296.2,239.1,324.8,297,335.7z"/>
	</g>
</g>
</svg>
