<?xml version="1.0" encoding="utf-8"?>
<!-- Generator: Adobe Illustrator 27.7.0, SVG Export Plug-In . SVG Version: 6.00 Build 0)  -->
<svg version="1.1" id="Lager_1" xmlns="http://www.w3.org/2000/svg" xmlns:xlink="http://www.w3.org/1999/xlink" x="0px" y="0px"
	 viewBox="0 0 500 500" style="enable-background:new 0 0 500 500;" xml:space="preserve">
<style type="text/css">
	.st0{fill:#006335;}
</style>
<g>
	<g>
		<path class="st0" d="M60.9,249.9c124.6,65.4,188,147.8,190.3,247.1C136.4,462.7,19.9,377.5,5,263v-26.2
			C19.9,122.3,136.4,37.1,251.2,2.8C248.9,102.1,185.5,184.5,60.9,249.9L60.9,249.9z M375.9,346.3c53.8-20,107.4-52.1,124.1-96.5
			c-16.7-44.3-70.3-76.5-124.1-96.5c-12.1,13.6-26.3,25-42.9,33.5c24,14.4,43.9,32.5,53.5,54.8l3.5,8.2l-3.5,8.2
			c-9.6,22.3-29.5,40.4-53.5,54.8C349.6,321.3,363.8,332.7,375.9,346.3L375.9,346.3z M309.9,174.7c33.1-12.1,58.2-37.1,75.7-72.8
			c-35.8-40.2-77.1-49.4-123.7-34.6c-8.5,28.9-22.1,55.1-39.5,78.8C248.8,151.7,280.8,161,309.9,174.7L309.9,174.7z M309.9,325.1
			c-29.1,13.7-61.1,23-87.5,28.6c17.4,23.7,31,49.9,39.5,78.8c46.6,14.8,88,5.6,123.7-34.6C368,362.3,343,337.2,309.9,325.1
			L309.9,325.1z M367.7,249.9c-20-46.3-101.8-74.9-159.7-85.8c-28.9,33.7-65.5,62-105.1,85.8c39.6,23.8,76.2,52.1,105.1,85.8
			C265.9,324.8,347.7,296.2,367.7,249.9z"/>
	</g>
</g>
</svg>
